<svg width="10" height="13" viewBox="0 0 10 13" fill="none" xmlns="http://www.w3.org/2000/svg">
<path d="M3.1875 4.5C3.46364 4.5 3.6875 4.27614 3.6875 4C3.6875 3.72386 3.46364 3.5 3.1875 3.5V4.5ZM6.6875 3.5C6.41136 3.5 6.1875 3.72386 6.1875 4C6.1875 4.27614 6.41136 4.5 6.6875 4.5V3.5ZM3.54105 5.83395C3.34579 5.63868 3.02921 5.63868 2.83395 5.83395C2.63868 6.02921 2.63868 6.34579 2.83395 6.54105L3.54105 5.83395ZM4.9375 7.9375L4.58395 8.29105C4.67771 8.38482 4.80489 8.4375 4.9375 8.4375C5.07011 8.4375 5.19728 8.38482 5.29105 8.29105L4.9375 7.9375ZM7.04105 6.54105C7.23631 6.34579 7.23631 6.02921 7.04105 5.83395C6.84579 5.63868 6.52921 5.63868 6.33395 5.83395L7.04105 6.54105ZM5.4375 0.5C5.4375 0.223858 5.21364 2.98023e-08 4.9375 0C4.66136 -5.96046e-08 4.4375 0.223858 4.4375 0.5L5.4375 0.5ZM8.375 5.3125V10.5625H9.375V5.3125H8.375ZM7.5625 11.375H2.3125V12.375H7.5625V11.375ZM1.5 10.5625V5.3125H0.5V10.5625H1.5ZM2.3125 4.5H3.1875V3.5H2.3125V4.5ZM6.6875 4.5H7.5625V3.5H6.6875V4.5ZM2.3125 11.375C1.86377 11.375 1.5 11.0112 1.5 10.5625H0.5C0.5 11.5635 1.31148 12.375 2.3125 12.375V11.375ZM8.375 10.5625C8.375 11.0112 8.01123 11.375 7.5625 11.375V12.375C8.56352 12.375 9.375 11.5635 9.375 10.5625H8.375ZM9.375 5.3125C9.375 4.31148 8.56352 3.5 7.5625 3.5V4.5C8.01123 4.5 8.375 4.86377 8.375 5.3125H9.375ZM1.5 5.3125C1.5 4.86377 1.86377 4.5 2.3125 4.5V3.5C1.31148 3.5 0.5 4.31148 0.5 5.3125H1.5ZM2.83395 6.54105L4.58395 8.29105L5.29105 7.58395L3.54105 5.83395L2.83395 6.54105ZM5.29105 8.29105L7.04105 6.54105L6.33395 5.83395L4.58395 7.58395L5.29105 8.29105ZM5.4375 7.9375L5.4375 0.5L4.4375 0.5L4.4375 7.9375H5.4375Z" fill="#444444"/>
</svg>
