<svg width="16" height="16" viewBox="0 0 16 16" fill="none" xmlns="http://www.w3.org/2000/svg">
<path d="M9.16634 2.16663H4.49967C4.19026 2.16663 3.89351 2.28954 3.67472 2.50833C3.45592 2.72713 3.33301 3.02387 3.33301 3.33329V12.6666C3.33301 12.976 3.45592 13.2728 3.67472 13.4916C3.89351 13.7104 4.19026 13.8333 4.49967 13.8333H11.4997C11.8091 13.8333 12.1058 13.7104 12.3246 13.4916C12.5434 13.2728 12.6663 12.976 12.6663 12.6666V5.66663L9.16634 2.16663Z" stroke="#B0B6D3" stroke-linecap="round" stroke-linejoin="round"/>
<path d="M9.16699 2.16663V5.66663H12.667" stroke="#B0B6D3" stroke-linecap="round" stroke-linejoin="round"/>
<path d="M10.3337 8.58337H5.66699" stroke="#B0B6D3" stroke-linecap="round" stroke-linejoin="round"/>
<path d="M10.3337 10.9166H5.66699" stroke="#B0B6D3" stroke-linecap="round" stroke-linejoin="round"/>
<path d="M6.83366 6.25H6.25033H5.66699" stroke="#B0B6D3" stroke-linecap="round" stroke-linejoin="round"/>
</svg>
