<svg width="16" height="20" viewBox="0 0 16 20" fill="none" xmlns="http://www.w3.org/2000/svg">
<path d="M15.54 19.9974H2.14925C2.13166 19.9872 2.11658 19.9745 2.09898 19.9719C0.746583 19.6886 0 18.7596 0 17.3558C0 12.4477 0 7.54211 0 2.634C0 2.4145 0.0125687 2.18989 0.0553024 1.9755C0.304163 0.783563 1.2795 0 2.51123 0C6.76198 0 11.0127 0 15.2635 0C15.7914 0 15.9975 0.206738 15.9975 0.742726C15.9975 6.91424 15.9975 13.0832 16 19.2547C16 19.6146 15.8819 19.8724 15.54 20V19.9974ZM14.8311 18.8259V16.2353H14.5722C10.5904 16.2353 6.60864 16.2353 2.62938 16.2353C2.52632 16.2353 2.42325 16.2379 2.3227 16.2455C1.53841 16.3042 0.99293 17.1031 1.20911 17.8688C1.38005 18.4686 1.86269 18.8234 2.5238 18.8234C6.56842 18.8234 10.6156 18.8234 14.6602 18.8234H14.8311V18.8259ZM11.7694 4.92598C12.0534 4.89791 12.2646 4.67075 12.2797 4.38489C12.2947 4.08372 12.1062 3.83359 11.8171 3.78254C11.7291 3.76723 11.6386 3.76468 11.5482 3.76468C9.18272 3.76468 6.81728 3.76468 4.45185 3.76468C4.35632 3.76468 4.25829 3.76978 4.16528 3.78765C3.92396 3.83359 3.74548 4.04033 3.72286 4.2879C3.68767 4.67075 3.94407 4.93364 4.36387 4.93364C5.56795 4.93619 11.6914 4.93364 11.7694 4.92598V4.92598ZM6.94046 7.44768C7.83786 7.44768 8.73276 7.44768 9.63017 7.44768C9.68798 7.44768 9.7458 7.44768 9.80361 7.44002C10.0198 7.41195 10.1782 7.18479 10.1882 6.89893C10.1983 6.59775 10.0575 6.34763 9.83881 6.29658C9.77345 6.28127 9.70306 6.27871 9.63519 6.27871C7.84792 6.27871 6.05813 6.27871 4.27086 6.27871C4.19796 6.27871 4.12506 6.28382 4.05467 6.30168C3.87117 6.34763 3.73794 6.55436 3.72035 6.80194C3.69521 7.18479 3.88625 7.44768 4.2055 7.44768C5.11548 7.45023 6.02797 7.44768 6.93794 7.44768H6.94046Z" fill="white"/>
</svg>
