<svg width="16" height="16" viewBox="0 0 16 16" fill="none" xmlns="http://www.w3.org/2000/svg">
<path fill-rule="evenodd" clip-rule="evenodd" d="M1.62366 2.7894C1.33301 3.35983 1.33301 4.10657 1.33301 5.60004V10.4C1.33301 11.8935 1.33301 12.6403 1.62366 13.2107C1.87932 13.7124 2.28727 14.1204 2.78903 14.3761C3.35946 14.6667 4.1062 14.6667 5.59967 14.6667H10.3997C11.8931 14.6667 12.6399 14.6667 13.2103 14.3761C13.7121 14.1204 14.12 13.7124 14.3757 13.2107C14.6663 12.6403 14.6663 11.8935 14.6663 10.4V5.60004C14.6663 4.10657 14.6663 3.35983 14.3757 2.7894C14.12 2.28763 13.7121 1.87969 13.2103 1.62402C12.6399 1.33337 11.8931 1.33337 10.3997 1.33337H5.59967C4.1062 1.33337 3.35946 1.33337 2.78903 1.62402C2.28727 1.87969 1.87932 2.28763 1.62366 2.7894ZM12.1377 6.13811C12.3981 5.87776 12.3981 5.45565 12.1377 5.1953C11.8774 4.93495 11.4553 4.93495 11.1949 5.1953L6.66634 9.7239L4.80441 7.86197C4.54406 7.60162 4.12195 7.60162 3.8616 7.86197C3.60125 8.12232 3.60125 8.54443 3.8616 8.80478L6.19494 11.1381C6.45529 11.3985 6.8774 11.3985 7.13775 11.1381L12.1377 6.13811Z" fill="#1BA818"/>
</svg>
