<svg width="16" height="16" viewBox="0 0 16 16" fill="none" xmlns="http://www.w3.org/2000/svg">
<g clip-path="url(#clip0_1743_2249)">
<path d="M1.99967 14C1.82286 14 1.65329 13.9298 1.52827 13.8047C1.40325 13.6797 1.33301 13.5101 1.33301 13.3333V2.66667C1.33301 2.48986 1.40325 2.32029 1.52827 2.19526C1.65329 2.07024 1.82286 2 1.99967 2H6.94234L8.27567 3.33333H13.333C13.5098 3.33333 13.6794 3.40357 13.8044 3.5286C13.9294 3.65362 13.9997 3.82319 13.9997 4V6H2.66634V12.664L3.99967 7.33333H14.9997L13.4597 13.4953C13.4236 13.6395 13.3403 13.7675 13.2231 13.8589C13.106 13.9503 12.9616 14 12.813 14H1.99967V14Z" fill="#FAC300"/>
<path d="M2.66699 6V12.6667L4.00033 7.33333H14.0003V6H2.66699Z" fill="white"/>
</g>
<defs>
<clipPath id="clip0_1743_2249">
<rect width="16" height="16" fill="white"/>
</clipPath>
</defs>
</svg>
