<svg width="16" height="16" viewBox="0 0 16 16" fill="none" xmlns="http://www.w3.org/2000/svg">
<g opacity="0.6">
<path d="M11.2478 1.33337C12.4365 1.33337 12.8676 1.45714 13.3021 1.68955C13.7367 1.92196 14.0778 2.26301 14.3102 2.69758C14.5426 3.13215 14.6663 3.5632 14.6663 4.75189V11.2482C14.6663 12.4369 14.5426 12.8679 14.3102 13.3025C14.0778 13.7371 13.7367 14.0781 13.3021 14.3105C12.8676 14.5429 12.4365 14.6667 11.2478 14.6667H4.75152C3.56283 14.6667 3.13178 14.5429 2.69721 14.3105C2.26265 14.0781 1.92159 13.7371 1.68918 13.3025C1.45678 12.8679 1.33301 12.4369 1.33301 11.2482V4.75189C1.33301 3.5632 1.45678 3.13215 1.68918 2.69758C1.92159 2.26301 2.26265 1.92196 2.69721 1.68955C3.13178 1.45714 3.56283 1.33337 4.75152 1.33337H11.2478ZM11.6238 2.66671H4.3756C3.78125 2.66671 3.56573 2.72859 3.34844 2.8448C3.13116 2.961 2.96063 3.13153 2.84443 3.34881C2.72822 3.56609 2.66634 3.78162 2.66634 4.37596V11.6241C2.66634 12.2185 2.72822 12.434 2.84443 12.6513C2.96063 12.8686 3.13116 13.0391 3.34844 13.1553C3.56573 13.2715 3.78125 13.3334 4.3756 13.3334H11.6238C12.2181 13.3334 12.4336 13.2715 12.6509 13.1553C12.8682 13.0391 13.0387 12.8686 13.1549 12.6513C13.2711 12.434 13.333 12.2185 13.333 11.6241V4.37596C13.333 3.78162 13.2711 3.56609 13.1549 3.34881C13.0387 3.13153 12.8682 2.961 12.6509 2.8448C12.4336 2.72859 12.2181 2.66671 11.6238 2.66671Z" fill="#B8C1CC"/>
</g>
</svg>
