<svg width="50" height="50" viewBox="0 0 50 50" fill="none" xmlns="http://www.w3.org/2000/svg">
<path d="M45.8332 25H33.3332L29.1665 31.25H20.8332L16.6665 25H4.1665" stroke="#444444" stroke-width="1.5" stroke-linecap="round" stroke-linejoin="round"/>
<path d="M11.354 10.6459L4.1665 25V37.5C4.1665 38.6051 4.60549 39.6649 5.38689 40.4463C6.16829 41.2277 7.2281 41.6667 8.33317 41.6667H41.6665C42.7716 41.6667 43.8314 41.2277 44.6128 40.4463C45.3942 39.6649 45.8332 38.6051 45.8332 37.5V25L38.6457 10.6459C38.3007 9.95168 37.769 9.36748 37.1102 8.95896C36.4514 8.55043 35.6917 8.33379 34.9165 8.33337H15.0832C14.308 8.33379 13.5483 8.55043 12.8895 8.95896C12.2307 9.36748 11.699 9.95168 11.354 10.6459V10.6459Z" stroke="#444444" stroke-width="1.5" stroke-linecap="round" stroke-linejoin="round"/>
</svg>
