<svg width="50" height="50" viewBox="0 0 50 50" fill="none" xmlns="http://www.w3.org/2000/svg">
<path d="M29.1668 4.16663H12.5002C11.3951 4.16663 10.3353 4.60561 9.55388 5.38701C8.77248 6.16842 8.3335 7.22822 8.3335 8.33329V41.6666C8.3335 42.7717 8.77248 43.8315 9.55388 44.6129C10.3353 45.3943 11.3951 45.8333 12.5002 45.8333H37.5002C38.6052 45.8333 39.665 45.3943 40.4464 44.6129C41.2278 43.8315 41.6668 42.7717 41.6668 41.6666V16.6666L29.1668 4.16663Z" stroke="#444444" stroke-width="1.5" stroke-linecap="round" stroke-linejoin="round"/>
<path d="M29.1665 4.16663V16.6666H41.6665" stroke="#444444" stroke-width="1.5" stroke-linecap="round" stroke-linejoin="round"/>
<path d="M33.3332 27.0834H16.6665" stroke="#444444" stroke-width="1.5" stroke-linecap="round" stroke-linejoin="round"/>
<path d="M33.3332 35.4166H16.6665" stroke="#444444" stroke-width="1.5" stroke-linecap="round" stroke-linejoin="round"/>
<path d="M20.8332 18.75H18.7498H16.6665" stroke="#444444" stroke-width="1.5" stroke-linecap="round" stroke-linejoin="round"/>
</svg>
