<svg width="17" height="16" viewBox="0 0 17 16" fill="none" xmlns="http://www.w3.org/2000/svg">
<g clip-path="url(#clip0_1755_3404)">
<path d="M8.74992 14.6667C5.06792 14.6667 2.08325 11.682 2.08325 8.00004C2.08325 4.31804 5.06792 1.33337 8.74992 1.33337C12.4319 1.33337 15.4166 4.31804 15.4166 8.00004C15.4166 11.682 12.4319 14.6667 8.74992 14.6667ZM5.42525 12.1707C6.36895 12.9252 7.5417 13.3353 8.74992 13.3334C10.0633 13.3334 11.2653 12.8587 12.1946 12.072C11.7604 11.6265 11.2413 11.2726 10.6679 11.0312C10.0946 10.7899 9.47867 10.6659 8.85658 10.6667C8.21164 10.666 7.57359 10.7993 6.9829 11.0582C6.3922 11.3171 5.86177 11.6959 5.42525 12.1707ZM4.49392 11.2134C5.05422 10.6188 5.73037 10.1452 6.48068 9.82185C7.23099 9.49852 8.03957 9.33228 8.85658 9.33337C9.64435 9.33235 10.4246 9.48695 11.1524 9.78829C11.8803 10.0896 12.5414 10.5318 13.0979 11.0894C13.6686 10.2861 14.0057 9.34046 14.0716 8.35732C14.1376 7.37417 13.9299 6.39196 13.4716 5.51968C13.0133 4.64739 12.3223 3.91912 11.4752 3.41567C10.6282 2.91222 9.65824 2.65327 8.67299 2.66754C7.68773 2.68182 6.72569 2.96876 5.8936 3.49655C5.06151 4.02433 4.39189 4.77231 3.95905 5.65751C3.5262 6.54271 3.34705 7.53051 3.44146 8.51134C3.53588 9.49217 3.90017 10.4277 4.49392 11.214V11.2134ZM8.74992 8.66671C8.04267 8.66671 7.3644 8.38576 6.8643 7.88566C6.3642 7.38556 6.08325 6.70728 6.08325 6.00004C6.08325 5.2928 6.3642 4.61452 6.8643 4.11442C7.3644 3.61433 8.04267 3.33337 8.74992 3.33337C9.45716 3.33337 10.1354 3.61433 10.6355 4.11442C11.1356 4.61452 11.4166 5.2928 11.4166 6.00004C11.4166 6.70728 11.1356 7.38556 10.6355 7.88566C10.1354 8.38576 9.45716 8.66671 8.74992 8.66671ZM8.74992 7.33337C9.10354 7.33337 9.44268 7.1929 9.69273 6.94285C9.94278 6.6928 10.0833 6.35366 10.0833 6.00004C10.0833 5.64642 9.94278 5.30728 9.69273 5.05723C9.44268 4.80718 9.10354 4.66671 8.74992 4.66671C8.3963 4.66671 8.05716 4.80718 7.80711 5.05723C7.55706 5.30728 7.41658 5.64642 7.41658 6.00004C7.41658 6.35366 7.55706 6.6928 7.80711 6.94285C8.05716 7.1929 8.3963 7.33337 8.74992 7.33337Z" fill="white"/>
</g>
<defs>
<clipPath id="clip0_1755_3404">
<rect width="16" height="16" fill="white" transform="translate(0.75)"/>
</clipPath>
</defs>
</svg>
