<svg width="17" height="16" viewBox="0 0 17 16" fill="none" xmlns="http://www.w3.org/2000/svg">
<g clip-path="url(#clip0_1755_3407)">
<path d="M8.86142 8.66666C8.69159 9.65337 8.15801 10.5406 7.36603 11.1531C6.57404 11.7656 5.58119 12.059 4.58347 11.9753C3.58576 11.8915 2.65569 11.4368 1.97685 10.7009C1.29802 9.96492 0.919763 9.00121 0.91675 7.99999C0.915834 6.9964 1.29221 6.02913 1.9712 5.2901C2.6502 4.55107 3.58219 4.09428 4.58227 4.01035C5.58235 3.92643 6.57743 4.22152 7.37009 4.83706C8.16275 5.4526 8.69507 6.34362 8.86142 7.33333H15.5834V8.66666H14.2501V11.3333H12.9167V8.66666H11.5834V11.3333H10.2501V8.66666H8.86142ZM4.91675 10.6667C5.62399 10.6667 6.30227 10.3857 6.80237 9.88561C7.30247 9.38552 7.58342 8.70724 7.58342 7.99999C7.58342 7.29275 7.30247 6.61447 6.80237 6.11438C6.30227 5.61428 5.62399 5.33333 4.91675 5.33333C4.20951 5.33333 3.53123 5.61428 3.03113 6.11438C2.53103 6.61447 2.25008 7.29275 2.25008 7.99999C2.25008 8.70724 2.53103 9.38552 3.03113 9.88561C3.53123 10.3857 4.20951 10.6667 4.91675 10.6667Z" fill="#09121F"/>
</g>
<defs>
<clipPath id="clip0_1755_3407">
<rect width="16" height="16" fill="white" transform="translate(0.25)"/>
</clipPath>
</defs>
</svg>
