<svg width="124" height="38" viewBox="0 0 124 38" fill="none" xmlns="http://www.w3.org/2000/svg">
<g clip-path="url(#clip0_1755_3755)">
<path fill-rule="evenodd" clip-rule="evenodd" d="M34.7612 28.9507C36.5648 28.5355 38.1532 27.4723 39.2244 25.963C40.2957 24.4537 40.7753 22.6035 40.5722 20.7639C40.369 18.9243 39.4972 17.2233 38.1224 15.9842C36.7476 14.745 34.9656 14.054 33.1148 14.0424C31.264 14.0308 29.4734 14.6993 28.0831 15.9211C26.6929 17.1429 25.7998 18.8327 25.5735 20.6697C25.3472 22.5066 25.8036 24.3627 26.8558 25.8853C27.908 27.4079 29.4829 28.491 31.2811 28.9288C31.959 25.92 29.9517 23.1681 27.7825 23.4688C27.8917 23.0025 28.1248 22.5743 28.4571 22.2295C28.7895 21.8847 29.2087 21.6359 29.6707 21.5096C31.092 21.0887 31.6966 21.7731 31.8376 21.971L31.8704 22.0213C31.8604 22.0039 31.8494 21.9872 31.8376 21.971C31.5729 21.5621 31.3917 21.1048 31.3044 20.6256C31.2172 20.1464 31.2256 19.6546 31.3293 19.1786C31.6244 18.2672 32.2693 17.5102 33.1223 17.074L33.1059 17.0652C33.9515 17.5122 34.5851 18.2767 34.8672 19.1907C34.964 19.669 34.965 20.1617 34.8702 20.6404C34.7755 21.1191 34.5868 21.5743 34.3151 21.9797C34.3029 21.9959 34.2916 22.0127 34.2812 22.03L34.3151 21.9797C34.5797 21.6793 34.9357 21.4744 35.3284 21.3965C35.721 21.3186 36.1284 21.3722 36.4875 21.5489C36.9487 21.681 37.3656 21.9354 37.694 22.2851C38.0223 22.6349 38.25 23.0669 38.3527 23.5355C35.9409 22.9899 33.9171 25.8883 34.7612 28.9507ZM33.388 29.1355H32.6806C32.8096 29.142 32.9397 29.1453 33.0709 29.1453C33.1744 29.1431 33.2801 29.1399 33.388 29.1355Z" fill="white"/>
<path d="M21.1667 20.2173C18.9212 21.2974 16.4578 21.8479 13.9661 21.8266C13.0457 21.9019 12.1205 21.7623 11.2632 21.4189C10.406 21.0754 9.64032 20.5376 9.02647 19.8477C8.53599 19.0625 8.24717 18.1683 8.18571 17.2445C18.5383 17.5047 24.8982 15.1618 24.8982 8.70353C24.8982 3.96399 21.1667 1.05029 15.9636 1.05029C6.66162 1.05357 0.985107 9.12555 0.985107 16.8848C0.985107 23.5541 4.76909 27.6726 12.0736 27.6726C15.3925 27.7188 18.6798 27.0221 21.6948 25.6336L21.1667 20.2173ZM17.8025 8.65652C17.8025 11.052 14.8593 11.8326 8.92042 11.7812C9.19252 10.3444 9.94333 9.04215 11.0504 8.08675C12.1575 7.13134 13.5556 6.57914 15.0168 6.52017C16.7519 6.52017 17.8025 7.40685 17.8025 8.65652Z" fill="white"/>
<path d="M97.0922 1.4165L106.448 26.881H114.435L123.999 1.4165H115.59L112.279 13.2375C111.701 15.4241 111.281 17.3516 110.858 19.4344H110.701C110.28 17.403 109.86 15.4252 109.229 13.2375L105.762 1.4165H97.0922ZM68.6659 9.01945C68.6659 5.21798 68.7752 3.08272 68.8758 1.4165H61.9409L61.6785 4.48873H61.5691C60.8372 3.29987 59.7954 2.33263 58.5557 1.69068C57.3159 1.04873 55.9248 0.75629 54.5314 0.844699C48.1716 0.844699 42.8635 6.05218 42.8635 14.2794C42.8635 21.5708 47.3833 26.6733 53.7431 26.6733C55.0776 26.7218 56.4042 26.4493 57.6113 25.8785C58.8185 25.3078 59.871 24.4555 60.6803 23.3933H60.7896V25.0081C60.7896 29.7553 57.8989 31.7342 54.1203 31.7342C51.5082 31.7211 48.9404 31.058 46.6486 29.8045L45.072 35.8473C47.9658 37.193 51.1312 37.8523 54.3215 37.7737C58.1055 37.7737 61.9419 37.0445 64.7277 34.649C67.6709 32.0972 68.6691 28.0891 68.6691 23.1845V9.02054L68.6659 9.01945ZM60.6846 15.5291C60.7046 16.2499 60.6161 16.9697 60.4222 17.6643C60.1609 18.5893 59.6013 19.4021 58.8304 19.9763C58.0595 20.5504 57.1205 20.8538 56.1594 20.8393C52.8488 20.8393 50.9541 17.8721 50.9541 14.0706C50.9541 9.436 53.2665 6.83172 56.2097 6.83172C57.2206 6.82549 58.2024 7.16968 58.9882 7.80574C59.774 8.4418 60.3151 9.33045 60.5195 10.3205C60.6239 10.7997 60.6767 11.2886 60.677 11.779V15.528L60.6846 15.5291ZM84.9181 0.612915C76.6143 0.612915 71.1477 5.87287 71.1477 14.1526C71.1477 22.3809 76.9292 27.2833 84.4446 27.2833C91.3326 27.2833 98.0018 23.0052 98.0018 13.6835C98.004 5.97674 92.7484 0.612915 84.9181 0.612915ZM84.6557 6.28943C88.2822 6.28943 89.7538 10.1434 89.7538 13.8924C89.7538 18.527 87.8088 21.5992 84.6557 21.5992C81.239 21.5992 79.4001 18.3192 79.4001 13.9459C79.4001 10.197 80.8717 6.29271 84.6557 6.29271V6.28943Z" fill="white"/>
</g>
<defs>
<clipPath id="clip0_1755_3755">
<rect width="123.015" height="37.1608" fill="white" transform="translate(0.985107 0.612915)"/>
</clipPath>
</defs>
</svg>
